:SAMPLES-PER-SECOND 30
:FRAME-RANGE 1-1086
:FULLY-SPECIFIED
:DEGREES
611
root  58.8242 38.8738 58.8458 -179.147 45.8324 -179.309
RightUpLeg  -15.8029 -3.31407 -4.07274
RightLeg  4.81808 -0.770664 -1.30751
RightFoot  8.85474 -1.73111 10.0405
RightToes  -5.8209e-011 0 -3.6325e-017
Spine  1.7938 0.201391 2.77681
Spine1  4.07925 0.836859 -2.2629
HEad  1.61855 7.14535 -7.77299
LeftShoulder1  1.56369 -0.639532 -31.6934
LeftArm  2.42408 -5.96004 -29.7398
LeftForeArm  -3.09366 -63.4817 -23.896
LeftHand  -0.100376 5.7407 -16.5287
RightShoulder  7.0484 11.6463 40.3998
RightArm  -0.327038 2.34128 9.43123
RightForeArm  -19.2671 63.7823 25.7925
RightHand  -0.235029 -6.37943 20.5368
LeftUpLeg  7.36322 3.66771 3.51515
LeftLeg  17.4518 -10.3604 -3.25324
LeftFoot  -15.8128 -0.0481403 -3.65939
LeftToes  5.72949e-011 5.22586e-011 2.45399e-011
612
root  59.8008 38.9312 58.5401 -178.53 43.9087 -178.734
RightUpLeg  -15.6058 -4.51512 -3.68686
RightLeg  7.76459 -1.41224 -0.317483
RightFoot  6.12981 -1.30299 8.73854
RightToes  -5.8209e-011 0 -3.6325e-017
Spine  1.2431 0.00970639 4.36825
Spine1  4.34274 0.691888 -1.8283
HEad  2.53009 7.12956 -7.49977
LeftShoulder1  1.54711 -0.613683 -31.5266
LeftArm  2.20747 -4.37838 -30.1704
LeftForeArm  -2.6004 -63.5406 -23.914
LeftHand  -0.0717929 5.55051 -16.6235
RightShoulder  6.97376 11.4905 40.3874
RightArm  0.318762 2.12676 9.50202
RightForeArm  -19.1545 63.8126 25.8222
RightHand  -0.246533 -6.43675 20.6062
LeftUpLeg  5.08128 2.09413 4.8946
LeftLeg  23.1159 -9.74062 -4.20728
LeftFoot  -13.7126 -0.0616407 -6.93781
LeftToes  5.72949e-011 5.22586e-011 2.45399e-011
613
root  60.7492 38.9299 58.318 -178.211 41.7603 -178.036
RightUpLeg  -14.9097 -5.44768 -3.10175
RightLeg  10.269 -2.55678 0.37268
RightFoot  3.46225 -1.00439 7.90207
RightToes  -5.8209e-011 0 -3.6325e-017
Spine  1.49709 -0.134917 5.78171
Spine1  4.36308 0.610376 -1.1587
HEad  3.19088 6.57959 -6.72103
LeftShoulder1  1.54832 -0.646793 -31.2551
LeftArm  2.30949 -3.70591 -30.166
LeftForeArm  -2.39471 -63.7821 -24.1831
LeftHand  -0.0943212 5.69661 -16.6917
RightShoulder  6.83758 11.2215 40.3187
RightArm  0.63735 1.96207 9.46209
RightForeArm  -18.7757 64.2137 26.3104
RightHand  -0.280176 -6.62255 20.4908
LeftUpLeg  1.5375 2.55237 7.09881
LeftLeg  30.9166 -9.4152 -5.70674
LeftFoot  -9.45722 0.229829 -10.5168
LeftToes  5.72949e-011 5.22586e-011 2.45399e-011
614
root  61.6119 38.8366 58.1154 -177.746 39.6109 -177.071
RightUpLeg  -14.5231 -6.10967 -2.24974
RightLeg  13.0794 -3.8969 0.773657
RightFoot  0.611447 -0.771685 7.40078
RightToes  -5.8209e-011 0 -3.6325e-017
Spine  1.96662 -0.266378 7.85222
Spine1  4.23775 0.689671 -1.01096
HEad  3.4818 5.73776 -5.83202
LeftShoulder1  1.55591 -0.69978 -30.964
LeftArm  2.73156 -3.77474 -29.8613
LeftForeArm  -2.16489 -64.1707 -24.6396
LeftHand  -0.103622 5.75524 -16.7672
RightShoulder  6.72995 11.0874 40.0248
RightArm  0.909188 1.72991 9.36246
RightForeArm  -18.2665 65.0168 27.3646
RightHand  -0.320657 -6.85734 20.2406
LeftUpLeg  -3.36978 3.7363 9.35292
LeftLeg  39.9151 -7.94343 -6.70621
LeftFoot  -2.94516 0.849835 -11.3103
LeftToes  5.72949e-011 5.22586e-011 2.45399e-011
615
root  62.3718 38.63 57.9207 -177.086 37.6726 -175.699
RightUpLeg  -14.5846 -6.47149 -0.960376
RightLeg  16.4347 -5.30126 0.823426
RightFoot  -2.47496 -0.574507 7.18248
RightToes  -5.8209e-011 0 -3.6325e-017
Spine  2.45688 -0.361609 10.2876
Spine1  4.26244 0.79801 -0.59368
HEad  3.54342 4.90406 -5.1833
LeftShoulder1  1.58963 -0.775614 -31.0982
LeftArm  3.08829 -4.25252 -29.0787
LeftForeArm  -1.8369 -64.8153 -25.4397
LeftHand  -0.12158 5.86586 -16.9444
RightShoulder  6.72439 11.2133 39.6124
RightArm  0.73613 2.02612 9.41339
RightForeArm  -18.2062 65.174 27.5837
RightHand  -0.365213 -7.09888 20.226
LeftUpLeg  -8.66092 5.13869 11.3401
LeftLeg  48.3461 -4.92364 -5.49765
LeftFoot  3.66793 1.24409 -9.5974
LeftToes  5.72949e-011 5.22586e-011 2.45399e-011
616
root  63.1623 38.5732 57.7117 -177.127 36.0328 -175.285
RightUpLeg  -13.7614 -6.75202 -0.203163
RightLeg  18.1069 -6.55721 0.64515
RightFoot  -4.71346 -0.438137 7.00247
RightToes  -5.8209e-011 0 -3.6325e-017
Spine  2.74563 -0.411656 11.0847
Spine1  4.34406 0.76867 -0.0970571
HEad  3.63261 4.45357 -4.67887
LeftShoulder1  1.60565 -0.825436 -31.041
LeftArm  3.07596 -4.52976 -28.5073
LeftForeArm  -1.56554 -65.1671 -25.8869
LeftHand  -0.125373 5.88719 -17.0308
RightShoulder  6.8676 11.5446 39.5578
RightArm  0.602713 2.79592 9.38656
RightForeArm  -18.4762 64.9336 27.2646
RightHand  -0.368926 -7.10359 20.3977
LeftUpLeg  -13.2419 7.45862 12.1024
LeftLeg  55.0641 -1.533 -1.88434
LeftFoot  3.71846 0.989772 -7.65186
LeftToes  5.72949e-011 5.22586e-011 2.45399e-011
617
root  63.9658 38.6387 57.4725 -177.596 34.6848 -175.64
RightUpLeg  -12.3386 -6.94927 0.0561885
RightLeg  18.4575 -7.55086 0.433758
RightFoot  -6.22782 -0.344814 6.76364
RightToes  -5.8209e-011 0 -3.6325e-017
Spine  2.77241 -0.368292 10.7461
Spine1  4.42611 0.69199 0.316799
HEad  3.9892 4.17086 -4.3817
LeftShoulder1  1.59629 -0.826221 -30.8161
LeftArm  2.76316 -4.48915 -28.2758
LeftForeArm  -1.63269 -65.3207 -26.1082
LeftHand  -0.136116 5.95716 -17.0016
RightShoulder  7.12423 11.9851 39.8955
RightArm  0.491272 3.63685 9.22124
RightForeArm  -18.9281 64.6093 26.8528
RightHand  -0.387451 -7.19888 20.4385
LeftUpLeg  -17.4107 10.5989 11.5599
LeftLeg  59.9395 -0.405359 -0.21008
LeftFoot  0.863038 0.559192 -5.2785
LeftToes  5.72949e-011 5.22586e-011 2.45399e-011
